/* XPM */
static char *b88856aad7cc4d4494ffff77d953dcc1l4xw4QVV2kmGsHQH[] = {
/* columns rows colors chars-per-pixel */
"30 31 161 2 ",
"   c #151F1F",
".  c #3C1A24",
"X  c #152226",
"o  c #1B2C27",
"O  c #1F3225",
"+  c #1F3328",
"@  c #2C2222",
"#  c #33252E",
"$  c #3E262C",
"%  c #36282B",
"&  c #223323",
"*  c #2E3C26",
"=  c #213528",
"-  c #253E29",
";  c #293E29",
":  c #343827",
">  c #33302B",
",  c #323B28",
"<  c #3E3828",
"1  c #441A24",
"2  c #751F35",
"3  c #482124",
"4  c #462A26",
"5  c #542626",
"6  c #59292F",
"7  c #523026",
"8  c #523129",
"9  c #573D2A",
"0  c #5C392B",
"q  c #583C31",
"w  c #672E28",
"e  c #613629",
"r  c #6D352B",
"t  c #693A29",
"y  c #763B2C",
"u  c #793E2A",
"i  c #652A32",
"p  c #742635",
"a  c #653634",
"s  c #623A33",
"d  c #793236",
"f  c #27422A",
"g  c #2C4129",
"h  c #2E4B2B",
"j  c #3B4926",
"k  c #39442A",
"l  c #354E2B",
"z  c #2C5729",
"x  c #34562D",
"c  c #3A522C",
"v  c #3C5D2E",
"b  c #3D642F",
"n  c #3F6730",
"m  c #3F6830",
"M  c #52442B",
"N  c #57492C",
"B  c #455C2D",
"V  c #4A5C2E",
"C  c #545D2F",
"Z  c #5F5B2C",
"A  c #514530",
"S  c #5A4532",
"D  c #574932",
"F  c #465630",
"G  c #60402D",
"H  c #6E4028",
"J  c #674D2F",
"K  c #70472E",
"L  c #724B2E",
"P  c #784F2E",
"I  c #64522C",
"U  c #735A2E",
"Y  c #685733",
"T  c #43622E",
"R  c #4A632E",
"E  c #4B6C2F",
"W  c #446730",
"Q  c #406930",
"!  c #5B6E32",
"~  c #517530",
"^  c #5E7430",
"/  c #557B31",
"(  c #716C2D",
")  c #61722F",
"_  c #656432",
"`  c #746C31",
"'  c #6C7B31",
"]  c #7F7B33",
"[  c #872B2B",
"{  c #8A2E2E",
"}  c #9C2A2F",
"|  c #853F2E",
" . c #94302F",
".. c #9C322D",
"X. c #9C392E",
"o. c #872432",
"O. c #8C2833",
"+. c #902731",
"@. c #952A31",
"#. c #853431",
"$. c #9A3B37",
"%. c #A52D2D",
"&. c #AA312E",
"*. c #A33A2E",
"=. c #AC3B34",
"-. c #B63D32",
";. c #B83F32",
":. c #894927",
">. c #84432D",
",. c #824C28",
"<. c #825429",
"1. c #804631",
"2. c #805436",
"3. c #8F5F35",
"4. c #9D5833",
"5. c #A44632",
"6. c #AE4037",
"7. c #AF4B32",
"8. c #B34132",
"9. c #BD4334",
"0. c #B24D34",
"q. c #AD5032",
"w. c #A25C36",
"e. c #BD5433",
"r. c #9F6733",
"t. c #9B6D36",
"y. c #8B7435",
"u. c #AE6537",
"i. c #B86537",
"p. c #B86438",
"a. c #BF6B39",
"s. c #BF7137",
"d. c #BA7138",
"f. c #B17F39",
"g. c #BA7C39",
"h. c #C34935",
"j. c #C84E37",
"k. c #CB5137",
"l. c #CE5438",
"z. c #CC5B38",
"x. c #D05639",
"c. c #D3633A",
"v. c #D4683A",
"b. c #C8713A",
"n. c #D97D3C",
"m. c #5E8732",
"M. c #618432",
"N. c #7B8734",
"B. c #768D34",
"V. c #7E9534",
"C. c #869F37",
"Z. c #AD8738",
"A. c #BD823A",
"S. c #A99039",
"D. c #8DA738",
"F. c #8EA838",
"G. c #97A639",
"H. c #94AF39",
"J. c #C6813B",
"K. c #CF8C3C",
"L. c #DA853C",
/* pixels */
"Q Q Q m.Q m.H.Q m.H.m.Q Q Q Q m.H.H.m.Q Q Q m.m.Q H.m.m.m.Q ",
"H.H.Q m.Q Q m.H.H.m.Q Q Q m.m.Q m.m.Q Q Q Q Q m.Q m.Q Q Q H.",
"Q m.m.m.Q Q Q m.m.Q Q Q Q Q m.Q Q m.Q H.H.m.Q Q Q Q Q Q H.m.",
"Q Q m.Q Q H.Q Q m.Q H.H.m.Q Q m.Q Q Q Q m.H.m.Q Q H.H.Q m.Q ",
"H.Q Q Q Q H.m.Q Q Q Q m.H.m.Q m.Q Q Q Q Q m.H.Q Q Q m.Q Q Q ",
"H.Q Q Q Q m.m.Q Q Q Q Q m.H.Q Q Q Q m.Q Q Q Q Q Q Q Q Q Q H.",
"m.m.Q H.Q m.H.Q Q m.Q Q H.H.Q H.Q Q m.m.Q Q Q Q m.H.H.Q m.Q ",
"m.Q Q m.m.m.m.Q Q m.m.Q m.m.Q m.H.Q Q m.Q m.Q Q Q m.m.Q Q Q ",
"Q Q Q Q m.Q Q Q m.m.m.Q Q Q Q m.m.Q Q ,.M.<.R Q Q Q m.m.Q z ",
"Q H.H.m.Q Q Q Q Q Q H.H.Q Q Q Q m.Q Q :.e R Q Q Q Q Q Q z # ",
"H.H.m.Q Q Q H.H.Q H.H.m._ b.K.A.A.A.g.w B Q Q Q H.H.Q Q z 8 ",
"m.Z.! Q Q Q m.H.Q S.d.A.K.n.L.L.c.c.L.s.0 T Q Q m.m.m.Q Q N ",
"Q p.g.f.N.Q Q y.J.J.n.L.n.c.c.c.x.x.c.c.0.G.U T M ^ m.Q Z t ",
"m.q.z.v.i.u.w.a.n.n.v.v.c.x.x.x.x.x.x.x.x.u.>.R V M B ( H 5 ",
"Q ` 7.j.x.9.h.c.v.c.x.x.x.x.x.x.x.x.x.x.x.x.*.>.I 4 9 7 3 . ",
"Q Q ` 0.;.9.j.x.x.x.x.x.x.x.x.x.x.x.x.x.x.x.h.9.[ 1 . < * * ",
"m.H.Q I 5.j.x.x.x.x.x.x.x.x.x.x.x.x.x.x.x.x.x.9.&.9 k v Q Q ",
"H.m.Q Q 4.j.x.x.x.x.x.x.x.x.x.x.x.x.x.x.9.9.9.&.%.I V.Q Q Q ",
"m.m.Q Q 1.=.j.x.x.x.x.x.x.x.x.x.x.l.9.9.r.8.@.+.%.u ) H.Q Q ",
"m.Q Q Q a o.=.j.x.x.x.x.k.9.=.6.9.9.%.%.M.t.$.O.} e.] m.Q Q ",
"Q Q Q Q D d o.=.j.x.x.k.;. .a p | %.%.%.W Q 3.>.>.>.C m.Q Q ",
"H.Q Q m.Q 2.2 +.-.h.h.;.X.L F 6 V } %.>.W Q Q Q H.m.Q Q Q Q ",
"H.m.Q Q Q s 2 #.X.%.%.*.K C.' @ V i { n Q Q Q Q Q m.H.H.Q Q ",
"m.H.m.Q Q S p Y L %...P B.T -   V c $ b Q H.m.Q Q Q m.m.H.Q ",
"m.m.H.Q Q m.q A J ..y h l = + o g l o b m.m.Q Q H.m.Q m.m.H.",
"Q Q Q Q m.H.: , B.G r + o o o = f R / m m.Q Q Q m.H.m.Q m.m.",
"H.H.m.Q H.m.O j c > % o o ; l B E b b Q Q Q Q Q Q m.H.Q Q Q ",
"m.m.Q Q m.m.O & g X X + - h x / F.m.Q Q Q H.H.H.Q m.m.Q Q Q ",
"m.Q Q Q m.b v T - o o h E C.b m m.H.Q Q H.H.m.m.Q Q m.Q H.H.",
"Q m.H.m.Q m b ~ x R B.b D.m.Q Q Q m.H.H.m.m.Q Q Q Q m.Q Q m.",
"Q H.m.Q Q m.m n b b m.m.m.Q Q Q Q Q m.m.Q Q Q Q Q Q Q Q m.m."
};
