/* XPM */
static char *_a2efad4376248baae821a5c99f17861OsE5azRuVWwqxK54[] = {
/* columns rows colors chars-per-pixel */
"30 31 145 2 ",
"   c #261E2B",
".  c #33252E",
"X  c #4D2E34",
"o  c #522E32",
"O  c #473632",
"+  c #4C3235",
"@  c #453A32",
"#  c #493E33",
"$  c #553132",
"%  c #5C3433",
"&  c #513D35",
"*  c #5F3931",
"=  c #623531",
"-  c #673934",
";  c #6B3B32",
":  c #633D3A",
">  c #683E3A",
",  c #733C30",
"<  c #783E30",
"1  c #38402F",
"2  c #2D5529",
"3  c #3C4130",
"4  c #3F5031",
"5  c #424632",
"6  c #494132",
"7  c #444B32",
"8  c #4C4A35",
"9  c #564437",
"0  c #584333",
"q  c #534A35",
"w  c #564739",
"e  c #5D4039",
"r  c #435232",
"t  c #4F5333",
"y  c #405E31",
"u  c #565635",
"i  c #5D5636",
"p  c #525C33",
"a  c #505338",
"s  c #61423A",
"d  c #6C423C",
"f  c #604B38",
"g  c #6B4B3C",
"h  c #764237",
"j  c #7C4436",
"k  c #72453E",
"l  c #774D3E",
"z  c #7B4E3F",
"x  c #61533D",
"c  c #6C513B",
"v  c #77533E",
"b  c #406430",
"n  c #406930",
"m  c #536432",
"M  c #556A32",
"N  c #586F32",
"B  c #5A673D",
"V  c #577132",
"C  c #597732",
"Z  c #5A7C32",
"A  c #6A6936",
"S  c #757D37",
"D  c #603C47",
"F  c #614140",
"G  c #6A4843",
"H  c #7B4D42",
"J  c #775248",
"K  c #7E574B",
"L  c #754950",
"P  c #7E4F5D",
"I  c #775B54",
"U  c #7F505E",
"Y  c #67685D",
"T  c #854937",
"R  c #804C3E",
"E  c #8C4E39",
"W  c #8C503C",
"Q  c #93543E",
"!  c #9B593F",
"~  c #824E40",
"^  c #835443",
"/  c #8B5543",
"(  c #8C5843",
")  c #825448",
"_  c #8B554D",
"`  c #8F584C",
"'  c #945944",
"]  c #9A5D45",
"[  c #92594D",
"{  c #985C4B",
"}  c #A15D42",
"|  c #9F674E",
" . c #916951",
".. c #9A6C55",
"X. c #A26147",
"o. c #AA6546",
"O. c #A46348",
"+. c #AA6649",
"@. c #AE694B",
"#. c #B46C4B",
"$. c #B86F4C",
"%. c #BB724F",
"&. c #AE6A51",
"*. c #A07158",
"=. c #A67A59",
"-. c #AD7B5C",
";. c #BC7451",
":. c #BF7852",
">. c #8C6D66",
",. c #8E6E6A",
"<. c #957E7D",
"1. c #BB7E61",
"2. c #A16777",
"3. c #C1765C",
"4. c #5E8732",
"5. c #828F38",
"6. c #829038",
"7. c #889C38",
"8. c #8EA439",
"9. c #94AF39",
"0. c #BD825D",
"q. c #91837B",
"w. c #BD8063",
"e. c #B3826E",
"r. c #C18365",
"t. c #C58A62",
"y. c #D28F61",
"u. c #CE9468",
"i. c #D39365",
"p. c #D89767",
"a. c #D09568",
"s. c #D99D6D",
"d. c #C58D72",
"f. c #DEA06E",
"g. c #E1A36F",
"h. c #E4A571",
"j. c #AE6F86",
"k. c #AF7084",
"l. c #B97792",
"z. c #D78785",
"x. c #DC8B8E",
"c. c #E897B8",
"v. c #F29CB9",
"b. c #F39EC1",
"n. c #FCA4C8",
/* pixels */
"n n n 4.n 4.9.n 4.9.4.n n n n 4.9.9.4.n n n 4.4.n 9.4.4.4.n ",
"9.9.n 4.n n 4.9.9.4.n n n 4.4.n 4.4.n n n n n 4.n 4.n n n 9.",
"n 4.4.4.n n n 4.4.n n n n n 4.n n 4.n 9.9.4.n n n n n n 9.4.",
"n n 4.n n 9.n n 4.n 9.9.4.n n 4.n n n n 4.9.4.n n 9.9.n 4.n ",
"9.n n n n 9.4.n n n n 4.9.4.n 4.n n n n n 4.9.n n n 4.n n n ",
"9.n n n n 4.4.n n n n n 4.9.n n n n 4.n n n n n n n n n n 9.",
"4.4.n 9.n 4.9.n n 4.n n 9.9.n 9.n n 4.4.n n n n 4.9.9.n 4.n ",
"4.n n 4.4.4.4.n n 4.M 5 t p y t A b n 4.n 4.n n n m t 5 n n ",
"n n n n 4.n n y q q v ' ' z g ' ' 9 7 r q q # 7 r l ' ^ 7 2 ",
"n 9.7.C b b 8 s ] O.@.$.+.k X.O.#.O.( l O.O.O.( z #.$.X.@ . ",
"9.6.f s q q ] @.$.$.$.$.O.: _ U [ #.#.#.$.$.$.#.#.$.#.( 3   ",
"V c +.O.H ] $.$.$.$.$.$.O.D l.b.j.` #.$.$.$.$.$.$.$.@.& b n ",
"5 ' $.] k $.$.$.$.$.$.$.O.P b.n.c.L @.$.$.$.$.$.$.$.#.^ 7 n ",
"p ( +.l X.$.$.$.$.$.$.$.#._ k.v.2.{ #.$.$.$.$.$.$.$.$.X.6 2 ",
"b i ^ > #.$.$.$.$.$.$.$.+.k &.3.@.#.$.@.@.$.$.$.$.$.+.X.9 2 ",
"n b q : #.$.$.$.$.$.$.$.O.d #.$.$.$.$./ / $.$.%.:.#.k O.( 1 ",
"4.9.7 H #.$.$.$.$.$.$.$.O.d #.$.$.$.$.] ] $.%.y.p.;.( @.' 5 ",
"9.4.& +.$.$.$.$.$.$.$.$.O.d #.$.$.;.%.$.$.%.y.f.f.i.:.$.' 5 ",
"4.4.& +.$.#.#.#.$.$.$.$.+.; ~ $.;.x.z.%.%.y.a.K G J 0.;.( 5 ",
"4.n & +.$.~ h O.#.$.$.$.#.j d X.#.3.3.;.y.g.g.-.F *.f.t.w b ",
"n n & +.$./ - j } +.$.$.$.o.h % ~ ' ' | u.h.h.h.s.g.g.=.8 n ",
"9.n & +.$.#.> ; < T ] +.' #.o.Q R d X % ) .......... .a n n ",
"9.4.& +.$.$.' - , < < T % Q #.$.$.#.z $ % = = = o 8 S 8.n n ",
"4.8.q O.$.$.$.' % , , ; o , ! $.$.$.] # 6 ; < < , & N 4.9.n ",
"4.4.5.d #.$.$.O.+ O O O O $ E #.$.$.#.^ u q ; < < , & N 4.9.",
"n n y e 1.r.;.e.x b 4.n y # - W $.d.;.w.I r 6 ; < < , @ 4.4.",
"9.9.Z 8 >.,.) q.B n 4.4.n C t 0 H <.) >.Y y b 6 % % * 5 n n ",
"4.4.n b m m 4 M 4.n n n n n n V S m 4 4 y 9.9.8.4 m m n n n ",
"4.n n n 4.n n 4.n n n n 4.9.n n 4.9.n n 9.9.4.4.n n 4.n 9.9.",
"n 4.9.4.n n n 4.n 4.9.n 9.4.n n n 4.9.9.4.4.n n n n 4.n n 4.",
"n 9.4.n n 4.n n n n 4.4.4.n n n n n 4.4.n n n n n n n n 4.4."
};
