/* XPM */
static char *_65c40ffdee1422a9ca14a9536869db2aHoyDrJ647ftECnf[] = {
/* columns rows colors chars-per-pixel */
"28 28 4 1 ",
"  c #1B141E",
". c #5A303F",
"X c #3E3F64",
"o c #74647F",
/* pixels */
"....  .............. .......",
"............................",
"     ...... ...........     ",
" ... ....  .... ....... ... ",
" .o.                    .o. ",
" . . ..              .. . . ",
" ... .                . ... ",
" ...                    ... ",
" ...                    ... ",
" ...  ........ .......  ... ",
" ...                    ... ",
" ...   . .        . .   ..  ",
"  ..   .            .   ... ",
"  ..   .            .   ... ",
" ...                .   ... ",
" ...                .   ... ",
" ...   .                ... ",
" ...   .            .   ... ",
" ..    .            .   ... ",
" ...   .            .   ... ",
" ...   .            .   ... ",
" ...   .                ... ",
" ...                    . . ",
" ...                     .. ",
" ...   .            .    .. ",
" ...                .   ... ",
"  .. X          X     X ... ",
" ...      XX   X  X     ... "
};
