/* XPM */
static char *_541d014a1cc4569fda137d259ce208bzh9q4hCHpEttMZoV[] = {
/* columns rows colors chars-per-pixel */
"30 31 6 1 ",
"  c #261E2B",
". c #33252E",
"X c #2C5729",
"o c #406930",
"O c #5E8732",
"+ c #94AF39",
/* pixels */
"oooOoO+oO+OooooO++OoooOOo+OOOo",
"++oOooO++OoooOOoOOoooooOoOooo+",
"oOOOoooOOoooooOooOo++Ooooooo+O",
"ooOoo+ooOo++OooOooooO+Ooo++oOo",
"+oooo+OooooO+OoOoooooO+oooOooo",
"+ooooOOoooooO+ooooOoooooooooo+",
"OOo+oO+ooOoo++o+ooOOooooO++oOo",
"OooOOOOooOOoOOoO+ooOoOoooOOooo",
"ooooOoooOOOooooOOoooOOooooOOoX",
"o++Ooooooo++ooooOoooOoooooooX.",
"++Oooo++o++Oo++ooooooooo++ooX ",
"OOooooO+o+Oo++Ooo++oooooOOOooo",
"ooooOooO+OooOOOo++Ooo++ooOOooo",
"O++oOOooOoooOOoo+OoooO+ooooOoX",
"oO++ooooooooOoooOoOOooOo++OooX",
"ooO+oo+ooo++oooooooOOoooOOooXX",
"O+oooo++o++ooOoo+oooooooOooooo",
"+OooOoo+OOooOOo++oo+ooOOo++ooo",
"OOooOOooOoooOoo+OoOO+ooOoOO+oo",
"OooooooooooooooOooOoOOooooOOoo",
"ooooo+oo++Oo+ooooooooooooooOoo",
"+ooOo++o+Oo+Oooooooooooo+Ooooo",
"+OooooOOOoo+o++OOooooooooO++oo",
"O+OooooOoooO+OoO+Oooo+OoooOO+o",
"OO+ooOooooooOoooOOOoOOoo+OoOO+",
"ooooO+oo+oOooooooOOoOoooO+OoOO",
"++Oo+Oo+OoOOoOOOOooooooooO+ooo",
"OOooOOoOOooooooO+Oooo+++oOOooo",
"OoooOooOooooO+ooO+oo++OOooOo++",
"oO+OoooOoO+o+OoooO++OOooooOooO",
"o+OooOooooOOOoooooOOooooooooOO"
};
