/* XPM */
static char *_3e43aeb6ade44578a55e83a09c183bavV2QHv3i5Mys2eiZ[] = {
/* columns rows colors chars-per-pixel */
"30 31 141 2 ",
"   c #0F1A25",
".  c #111D25",
"X  c #131E2A",
"o  c #261E2B",
"O  c #152325",
"+  c #1A2626",
"@  c #1A2B27",
"#  c #16222A",
"$  c #1A282C",
"%  c #1E312B",
"&  c #1C2B34",
"*  c #1F2F38",
"=  c #1F303A",
"-  c #33252E",
";  c #21352A",
":  c #243C2A",
">  c #293C29",
",  c #202E37",
"<  c #233134",
"1  c #283F37",
"2  c #22333C",
"3  c #273B3B",
"4  c #2A3C3C",
"5  c #26412B",
"6  c #2B432B",
"7  c #2E4C2C",
"8  c #36442A",
"9  c #344C2B",
"0  c #3E4D2B",
"q  c #2C5729",
"w  c #33542D",
"e  c #3A532B",
"r  c #375A2E",
"t  c #3A5D2E",
"y  c #2A4331",
"u  c #2C433A",
"i  c #314E34",
"p  c #335234",
"a  c #3C5433",
"s  c #375A31",
"d  c #3A5C31",
"f  c #35513A",
"g  c #3A5438",
"h  c #3C5C3C",
"j  c #3C632F",
"k  c #3F6632",
"l  c #3F6830",
"z  c #4C5D2E",
"x  c #45632D",
"c  c #4A6B2F",
"v  c #56692F",
"b  c #4F722F",
"n  c #436231",
"m  c #406930",
"M  c #486932",
"N  c #476539",
"B  c #4C603F",
"V  c #4D6C3F",
"C  c #5A6D30",
"Z  c #527630",
"A  c #5C7033",
"S  c #577D31",
"D  c #587F32",
"F  c #51723C",
"G  c #657A31",
"H  c #253740",
"J  c #273941",
"K  c #2C3D45",
"L  c #2E4144",
"P  c #2F4149",
"I  c #314642",
"U  c #324B40",
"Y  c #32454C",
"T  c #36484F",
"R  c #394F4A",
"E  c #395345",
"W  c #3C5B40",
"Q  c #3D534B",
"!  c #3C5849",
"~  c #374A51",
"^  c #394D53",
"/  c #3E5359",
"(  c #445E42",
")  c #495D4B",
"_  c #41565C",
"`  c #435D59",
"'  c #45674B",
"]  c #4A6649",
"[  c #566C47",
"{  c #5F7545",
"}  c #507449",
"|  c #446451",
" . c #496152",
".. c #4C6C53",
"X. c #4D6E5B",
"o. c #597A5C",
"O. c #637A44",
"+. c #455C62",
"@. c #485F64",
"#. c #476064",
"$. c #4A6363",
"%. c #4C6960",
"&. c #4D656B",
"*. c #536569",
"=. c #526D72",
"-. c #567276",
";. c #5C7173",
":. c #577378",
">. c #5A7579",
",. c #5D787C",
"<. c #617777",
"1. c #5E8732",
"2. c #708633",
"3. c #758C35",
"4. c #7A9238",
"5. c #5C8241",
"6. c #6B8342",
"7. c #6E8A5F",
"8. c #728E5B",
"9. c #65836D",
"0. c #6F8A79",
"q. c #738F78",
"w. c #859D37",
"e. c #839D3D",
"r. c #88A137",
"t. c #8CA638",
"y. c #8EA93D",
"u. c #94AF39",
"i. c #667F82",
"p. c #678183",
"a. c #6A8385",
"s. c #6D8688",
"d. c #708586",
"f. c #768E85",
"g. c #738B8C",
"h. c #768E8F",
"j. c #7B9292",
"k. c #7D9392",
"l. c #7E9594",
"z. c #819796",
"x. c #829897",
/* pixels */
"m 1.1.1.u.m 1.1.m m m 1.u.u.1.m m m m 1.u.1.m u.1.m 1.m m m ",
"u.m m m 1.m 1.m m m m m 1.1.m 1.1.m m m 1.u.u.1.m m 1.m u.u.",
"1.u.m m m m m m 1.u.u.m 1.m m 1.m m m m m 1.1.m m m 1.1.1.m ",
"m 1.m u.u.m m 1.u.1.m m m m 1.m m 1.u.u.m 1.m m u.m m 1.m m ",
"m m m 1.m m h [ 1.m m m m m 1.m 1.u.1.m m m m 1.u.m m m m u.",
"u.m m m m h T E m m k Q k m m m u.1.m m m m m 1.1.m m m m u.",
"m 1.m { ) R T T R R Q T k m u.m u.u.m m 1.m m u.1.m u.m 1.1.",
"m m m > J T T T T T T T k u.1.m 1.1.m 1.1.m m 1.1.1.1.m m 1.",
"q m d 3 K K , & J T T T E D 1.m m m m 1.1.1.m m m 1.m m m m ",
"- 5 4 Y T P * # H $.;.~ T ( k m m m u.u.m m m m m m 1.u.u.m ",
"o # & Y T Y P ^ &.s.k.^ T T E e.4.p V 6.6.h 6.y.m m m 1.u.u.",
"m $ # T _ / &.s.x.k.;.~ T T P ( B K T T T T T V k m m m 1.1.",
"m E E $.>.s.k.l.h.p.2 T T T J K T T T T T T T T h 1.m m m m ",
"q m 1.E <.p.p.h.>.&.T T T Y T T T T T T T T T T T F m y.y.1.",
"q m m 1.7.:.a.x.d.T T T T 2 K T T T T T T T T T T h u.8.o.m ",
"q q m m o.s.z.x.d.T T T T T T T T T T T T T T T T h 8.-.X.m ",
"m m m m 9.l.x.x.h.&.T T T T T T T T T T T T T T 2 L $.-.7.1.",
"m m m 8.f.x.x.h.,.=.T T T T T T T T T T T ~ &.J & K ^ / ] u.",
"m m u.5.q.x.x.g.=./ T T T T T T T K Y &.&.&.-.Y * 2 K K g 1.",
"m m 1.1.} 0.x.g.=.+.T T T T T _ ~ 3 u Y L ' -.&.Y 2 2 u s 1.",
"m m 1.m m ..a.j.p.=.+.~ T T _ ` U a ; X + 3.| | %.Y u s m m ",
"m m m m 1.O._ *.;.i.-.+.+.+.=.! 5 y &   < C 7 2. .Y N k m u.",
"m m u.u.1.h u & K ;.%.-.-.-.-.) 8 < < . 4 6 9 g 3 2 p j 1.u.",
"m u.1.1.m m h I & & p $.-.-.=.L + + O O O @ > ^ Y ^ W 1.u.1.",
"u.1.1.m 1.u.j i & O 5 6 $.=._ * . . . . O @ % $.L ` ' t.1.1.",
"1.1.m 1.u.D d f Y & @ + O @./ *   . O @ @ 0 : 7 2.Z j k l m ",
"m m m u.1...@._ @.& @ O . #.P # O O ; > : e G w Z r.k 1.u.u.",
"m m m 1.1.i 2 = 4 ; @ O + Y 2 $ @ ; : 6 7 c b j D 1.l m 1.1.",
"u.u.m 1.l d M n A v : #.Y @.K % z t 7 w r t D k k 1.m m m 1.",
"1.m m 1.l k j t b x A P 2 K 1 6 x 3.t w.D k 1.m m m 1.u.1.m ",
"1.1.m m m l k j j t c a y y 7 w t S 1.1.l l m m 1.m m 1.u.m "
};
