/* XPM */
static char *_4dd7f2186014b37e379ed3dc6b7622e2Odbgkg5NsHp9mX3[] = {
/* columns rows colors chars-per-pixel */
"31 31 6 1 ",
"  c #562C2C",
". c #2C5729",
"X c #755336",
"o c #A4764E",
"O c #5E8732",
"+ c #D4A56C",
/* pixels */
"XooooOOXooX+oooXXooooOOXooX+ooo",
"ooooXoOo+++XXoooooooXoOo+++XXoo",
"ooXXXXo+oooXXoo+ooXXXXo+oooXXoo",
"oXXXoXooooooXXoooXXXoXooooooXXo",
"ooooooXoo+ooooOOooooooXoo+ooooO",
"oo+oooXXoooooOOOoo+oooXXoooooOO",
"oo++ooooo+++ooXooo++ooooo+++ooX",
"oo++oXXoo+++oXXXoo++oXXoo+++oXX",
"..oooX Xoo+ooX o..oooX Xoo+ooX ",
"ooooooXXooooooooooooooXXooooooo",
"ooXooooXXooooXo+ooXooooXXooooXo",
"oX ooXoooo++oooooX ooXoooo++ooo",
"oXXooXoX XX++ooooXXooXoX XX++oo",
"oXXOOooXXXXooooooXXOOooXXXXoooo",
"ooXoO+OOOoooXoooooXoO+OOOoooXoo",
"oooooooo++o+OOOooooooooo++o+OOO",
"+ooooOoo+ooooooooXXXoOoo+oooooo",
"++oooOoooooooooo+oXXoOooooooooo",
"oooooooooooooXXooooXXooooooooXX",
"oooooXXXoo+oo Xooo+ooXXXoo+oo X",
"++oXooXXXo+..XX+++oOooXXXo+..XX",
"++oXooooXXoo..++ooXOOoooXXoo..+",
"o+oooooooooooo.ooooooooooooooo.",
"oooooooooXXXXooo++.oXooooXXXXoo",
"ooXXooo++XX Xo++oo..ooo++XX Xo+",
"oOoXoooo++oooo++ooo.oooo++oooo+",
"OOooooXooooXXoo++ooo+oXooooXXoo",
"oXoXooooooooXXooooXoooooooooXXo",
"oXXoo Xoo+ooX XooXXoo Xoo+ooX X",
"oo oXXXo+++ooXXOOXXooXXo+++ooXX",
"XoooXXoo+++ooooOoXoooXoo+++oooo"
};
